<svg xmlns="http://www.w3.org/2000/svg" viewBox="0 0 100 100" width="100" height="100">
  <defs>
    <linearGradient id="grad1" x1="0%" y1="0%" x2="100%" y2="100%">
      <stop offset="0%" style="stop-color:#4CAF50;stop-opacity:1" />
      <stop offset="100%" style="stop-color:#2E7D32;stop-opacity:1" />
    </linearGradient>
  </defs>
  
  <!-- Background circle -->
  <circle cx="50" cy="50" r="48" fill="url(#grad1)" stroke="#1B5E20" stroke-width="2"/>
  
  <!-- Medical cross -->
  <rect x="42" y="25" width="16" height="50" fill="white" rx="2"/>
  <rect x="25" y="42" width="50" height="16" fill="white" rx="2"/>
  
  <!-- Heart shape -->
  <path d="M35 30 C30 25, 20 25, 20 35 C20 45, 35 55, 35 55 S50 45, 50 35 C50 25, 40 25, 35 30 Z" 
        fill="#FF4444" opacity="0.8" transform="translate(15,15) scale(0.6)"/>
  
  <!-- Pulse line -->
  <polyline points="15,75 25,75 30,65 35,85 40,55 45,75 85,75" 
           fill="none" stroke="white" stroke-width="2" stroke-linecap="round"/>
</svg>